<svg xmlns="http://www.w3.org/2000/svg" viewBox="0 0 100 100">
  <rect width="100" height="100" rx="22" fill="#fbf6ec" />
  <g fill="#0e6b63">
    <rect x="48" y="14" width="4" height="24" rx="2" transform="rotate(0 50 50)" />
    <rect x="48" y="14" width="4" height="24" rx="2" transform="rotate(45 50 50)" />
    <rect x="48" y="14" width="4" height="24" rx="2" transform="rotate(90 50 50)" />
    <rect x="48" y="14" width="4" height="24" rx="2" transform="rotate(135 50 50)" />
    <rect x="48" y="14" width="4" height="24" rx="2" transform="rotate(180 50 50)" />
    <rect x="48" y="14" width="4" height="24" rx="2" transform="rotate(225 50 50)" />
    <rect x="48" y="14" width="4" height="24" rx="2" transform="rotate(270 50 50)" />
    <rect x="48" y="14" width="4" height="24" rx="2" transform="rotate(315 50 50)" />
  </g>
  <circle cx="50" cy="50" r="11" fill="#e3a52e" />
</svg>
